<?xml version="1.0" encoding="UTF-8"?>
<svg xmlns="http://www.w3.org/2000/svg" viewBox="0 0 512 512">
  <defs>
    <linearGradient id="bgGradient" x1="0%" y1="0%" x2="100%" y2="100%">
      <stop offset="0%" style="stop-color:#667eea"/>
      <stop offset="100%" style="stop-color:#764ba2"/>
    </linearGradient>
    <linearGradient id="paperGradient" x1="0%" y1="0%" x2="100%" y2="100%">
      <stop offset="0%" style="stop-color:#ffffff"/>
      <stop offset="100%" style="stop-color:#f0f0f0"/>
    </linearGradient>
  </defs>
  
  <!-- 背景圓角矩形 -->
  <rect x="32" y="32" width="448" height="448" rx="64" ry="64" fill="url(#bgGradient)"/>
  
  <!-- 文件背景 -->
  <path d="M 128 96 L 320 96 L 384 160 L 384 416 L 128 416 Z" fill="url(#paperGradient)" stroke="#e0e0e0" stroke-width="2"/>
  
  <!-- 文件折角 -->
  <path d="M 320 96 L 320 160 L 384 160 Z" fill="#e8e8e8" stroke="#d0d0d0" stroke-width="1"/>
  
  <!-- Markdown 標記 "M" -->
  <text x="200" y="220" font-family="Consolas, monospace" font-size="72" font-weight="bold" fill="#667eea">M</text>
  <text x="260" y="220" font-family="Consolas, monospace" font-size="72" font-weight="bold" fill="#764ba2">↓</text>
  
  <!-- Markdown 樣式線條 -->
  <rect x="160" y="260" width="180" height="8" rx="4" fill="#667eea" opacity="0.8"/>
  <rect x="160" y="290" width="140" height="6" rx="3" fill="#888888" opacity="0.6"/>
  <rect x="160" y="310" width="160" height="6" rx="3" fill="#888888" opacity="0.6"/>
  <rect x="160" y="330" width="120" height="6" rx="3" fill="#888888" opacity="0.6"/>
  
  <!-- 項目符號 -->
  <circle cx="170" cy="360" r="5" fill="#764ba2"/>
  <rect x="185" y="356" width="100" height="6" rx="3" fill="#888888" opacity="0.6"/>
  <circle cx="170" cy="380" r="5" fill="#764ba2"/>
  <rect x="185" y="376" width="80" height="6" rx="3" fill="#888888" opacity="0.6"/>
</svg>
